<svg width="19" height="16" viewBox="0 0 19 16" fill="none" xmlns="http://www.w3.org/2000/svg">
<path id="Vector" d="M10.2057 1.9277L10.2055 1.92794L9.50195 2.65293L9.14313 3.02267L8.78431 2.65293L8.08075 1.92794L8.08018 1.92735C6.44908 0.241011 3.83306 -0.00241969 2.09986 1.47446C0.0798345 3.1987 -0.0282993 6.30031 1.78101 8.17104L10.2057 1.9277ZM10.2057 1.9277C11.8407 0.240769 14.4532 -0.00223847 16.1863 1.47433C18.2064 3.19857 18.3145 6.30022 16.5018 8.17094L16.5017 8.17104L9.59118 15.3065C9.59115 15.3066 9.59112 15.3066 9.59109 15.3066C9.34112 15.5645 8.94144 15.5645 8.69151 15.3065L1.78122 8.17126L10.2057 1.9277Z" fill="#F8F8F8" stroke="#D4D4D4"/>
</svg>
